<svg width="804" height="208" viewBox="0 0 804 208" fill="none" xmlns="http://www.w3.org/2000/svg">
<path d="M394.186 189.837V208H256.449V0.000488281H391.587V18.1638H276.662V110.445V189.837H394.186Z" fill="white"/>
<path d="M91.9357 208V0.000488281H178.562C187.417 0.000488281 195.503 1.85588 202.818 5.56667C210.133 9.27746 216.486 14.3554 221.876 20.8004C227.458 27.0502 231.693 34.0811 234.581 41.8933C237.661 49.5102 239.201 57.3224 239.201 65.3299C239.201 75.2904 237.276 84.665 233.426 93.4538C229.768 102.242 224.474 109.664 217.544 115.718C210.807 121.773 202.818 125.777 193.578 127.73L243.821 208H221.009L168.763 113.082H112.149V208H91.9357ZM112.149 113.082H179.14C187.225 113.082 194.251 110.836 200.219 106.344C206.187 101.852 210.807 95.9927 214.079 88.7664C217.352 81.3449 218.988 73.5327 218.988 65.3299C218.988 56.9318 217.063 49.2173 213.213 42.1863C209.555 34.96 204.55 29.1985 198.198 24.9018C192.038 20.4098 185.107 18.1638 177.407 18.1638H112.149V113.082Z" fill="white"/>
<path d="M382.497 191.887L521.966 18.1638H384.807V0.000488281H545.355V16.1131L407.619 189.837H545.066V208H382.497V191.887Z" fill="white"/>
<path d="M609.737 0H626.773L711.956 207.999H690.588L664.023 142.963H571.91L545.633 207.999H523.976L609.737 0ZM664.023 142.963L618.111 24.0225L571.91 142.963H664.023Z" fill="white"/>
</svg>
