<svg width="621" height="599" viewBox="0 0 621 599" fill="none" xmlns="http://www.w3.org/2000/svg">
<path d="M618.944 299.237C618.944 464.501 484.971 598.473 319.707 598.473C154.443 598.473 20.4704 464.501 20.4704 299.237C20.4704 133.973 154.443 0 319.707 0C484.971 0 618.944 133.973 618.944 299.237Z" fill="#D18166"/>
<path d="M302.25 384.837V403H164.514V195.001H299.651V213.164H184.726V384.837H302.25Z" fill="white"/>
<path d="M0 403V195.001H86.6267C95.4818 195.001 103.567 196.856 110.882 200.567C118.197 204.277 124.55 209.355 129.94 215.8C135.523 222.05 139.758 229.081 142.645 236.893C145.725 244.51 147.265 252.322 147.265 260.33C147.265 270.29 145.34 279.665 141.49 288.454C137.833 297.243 132.539 304.664 125.609 310.719C118.871 316.773 110.882 320.777 101.642 322.73L151.885 403H129.074L76.8271 308.082H20.2129V403H0ZM20.2129 308.082H87.2042C95.2893 308.082 102.316 305.836 108.283 301.344C114.251 296.852 118.871 290.993 122.144 283.766C125.416 276.345 127.052 268.533 127.052 260.33C127.052 251.932 125.127 244.217 121.277 237.186C117.62 229.96 112.615 224.199 106.262 219.902C100.102 215.41 93.1718 213.164 85.4717 213.164H20.2129V308.082Z" fill="white"/>
<path d="M290.561 386.887L430.03 213.164H292.871V195.001H453.419V211.113L315.683 384.837H453.131V403H290.561V386.887Z" fill="white"/>
<path d="M517.801 195H534.838L620.021 402.999H598.653L572.087 337.963H479.974L453.697 402.999H432.041L517.801 195ZM572.087 337.963L526.175 219.022L479.974 337.963H572.087Z" fill="white"/>
</svg>
